<?xml version="1.0" encoding="UTF-8" standalone="no"?>
<svg
   xmlns:dc="http://purl.org/dc/elements/1.1/"
   xmlns:cc="http://creativecommons.org/ns#"
   xmlns:rdf="http://www.w3.org/1999/02/22-rdf-syntax-ns#"
   xmlns:svg="http://www.w3.org/2000/svg"
   xmlns="http://www.w3.org/2000/svg"
   xmlns:sodipodi="http://sodipodi.sourceforge.net/DTD/sodipodi-0.dtd"
   xmlns:inkscape="http://www.inkscape.org/namespaces/inkscape"
   fill="none"
   viewBox="0 0 348 348"
   version="1.1"
   id="svg60"
   sodipodi:docname="Going Backwards.svg"
   inkscape:version="1.0.1 (3bc2e813f5, 2020-09-07)">
  <metadata
     id="metadata66">
    <rdf:RDF>
      <cc:Work
         rdf:about="">
        <dc:format>image/svg+xml</dc:format>
        <dc:type
           rdf:resource="http://purl.org/dc/dcmitype/StillImage" />
      </cc:Work>
    </rdf:RDF>
  </metadata>
  <defs
     id="defs64" />
  <sodipodi:namedview
     pagecolor="#ffffff"
     bordercolor="#666666"
     borderopacity="1"
     objecttolerance="10"
     gridtolerance="10"
     guidetolerance="10"
     inkscape:pageopacity="0"
     inkscape:pageshadow="2"
     inkscape:window-width="1366"
     inkscape:window-height="706"
     id="namedview62"
     showgrid="false"
     inkscape:zoom="1.545977"
     inkscape:cx="174"
     inkscape:cy="174"
     inkscape:window-x="-8"
     inkscape:window-y="-8"
     inkscape:window-maximized="1"
     inkscape:current-layer="g58" />
  <path
     stroke="#000"
     stroke-width="2"
     d="M5 6h337v337H5z"
     id="path2" />
  <path
     stroke="#000"
     stroke-width="2"
     d="M283 41c0-9 7-16 15-16 4 0 8 2 11 5s5 7 5 11c0 8-7 15-16 15-8 0-15-7-15-15z"
     id="path4" />
  <path
     fill="#fff"
     d="M116 42q0-12 12-12h9q11 0 11 12v9q0 11-11 11h-9q-12 0-12-11zm12-3q-3 0-3 3v9q0 2 3 2h9q2 0 2-2v-9q0-3-2-3z"
     aria-label="0"
     font-family="Fox Cavalier"
     font-size="46.5"
     font-weight="400"
     letter-spacing="0"
     word-spacing="0"
     id="path6" />
  <path
     fill="#000"
     stroke="#000"
     stroke-opacity=".9"
     stroke-width="1.9"
     d="M26 193h40v54H26zm62 0h40v54H88zm62 0h39v54h-39zm62 0h39v54h-39zm61 0h40v54h-40zM26 263h40v55H26zm62 0h40v55H88zm62 0h39v55h-39zm62 0h39v55h-39zm61 0h40v55h-40z"
     id="path8" />
  <path
     fill="#000"
     stroke="#000"
     stroke-opacity=".9"
     stroke-width="1.9"
     d="M130 42h87v127h-87z"
     id="path50" />
  <path
     fill="#000000"
     stroke="#000000"
     stroke-opacity="0.9"
     stroke-width="2.30317"
     d="m 35.61794,86.435784 h 80.11728 V 128.03262 H 35.61794 Z"
     id="path54" />
  <g
     style="line-height:1.25"
     id="g58"
     transform="translate(4,-1.2936803)">
    <g
       aria-label="?"
       id="text70"
       style="font-size:131.408px;line-height:1.25;font-family:Calibri;-inkscape-font-specification:Calibri;letter-spacing:0px;word-spacing:0px;stroke-width:6.15977">
      <path
         d="m 110.45534,151.92054 q 0,5.64644 -1.6041,10.00959 -1.6041,4.36316 -4.49148,7.44303 -2.88739,3.07988 -6.929724,4.81231 -4.042336,1.73243 -8.982969,2.05325 l -0.449148,15.46354 q 0,0.96246 -1.154953,1.47577 -1.090789,0.44915 -3.593188,0.44915 -1.347445,0 -2.309906,-0.0642 -0.962461,-0.12833 -1.539938,-0.32082 -0.577476,-0.25666 -0.834133,-0.64165 -0.256656,-0.38498 -0.256656,-0.89829 l -0.384984,-17.77345 q -0.06416,-1.47577 0.192492,-2.37407 0.32082,-0.96246 0.898297,-1.53994 0.577476,-0.64164 1.475773,-0.83413 0.898297,-0.25666 2.05325,-0.25666 h 1.41161 q 4.170664,0 7.122211,-1.28328 2.951547,-1.34744 4.748141,-3.52902 1.860758,-2.18158 2.69489,-5.13313 0.834133,-2.95154 0.834133,-6.15975 0,-3.65735 -1.026625,-6.67306 -1.026625,-3.07987 -3.079875,-5.26145 -2.05325,-2.24574 -5.197289,-3.46486 -3.079875,-1.21912 -7.314704,-1.21912 -3.721515,0 -6.544734,0.83413 -2.759055,0.76997 -4.812305,1.73243 -2.05325,0.96247 -3.400695,1.73243 -1.283282,0.76997 -1.924922,0.76997 -0.449149,0 -0.834133,-0.19249 -0.320821,-0.19249 -0.577477,-0.7058 -0.256656,-0.57748 -0.384984,-1.47578 -0.128328,-0.96246 -0.128328,-2.37407 0,-1.53994 0.192492,-2.3099 0.192492,-0.83414 0.834133,-1.41161 0.64164,-0.64164 2.438234,-1.60411 1.860758,-1.02662 4.427321,-1.86075 2.630726,-0.83414 5.710601,-1.41161 3.14404,-0.57748 6.480571,-0.57748 6.865555,0 11.806188,1.98909 4.940633,1.92492 8.148833,5.26145 3.20821,3.33653 4.74814,7.82802 1.53994,4.49148 1.53994,9.49628 z m -20.275843,56.91352 q 0,2.11742 -0.32082,3.52903 -0.256657,1.34744 -1.026625,2.24574 -0.769969,0.83413 -2.117414,1.15495 -1.283282,0.38499 -3.208204,0.38499 -2.05325,0 -3.336531,-0.38499 -1.283281,-0.32082 -2.117414,-1.15495 -0.769969,-0.8983 -1.090789,-2.24574 -0.256657,-1.41161 -0.256657,-3.52903 0,-2.11741 0.256657,-3.52902 0.32082,-1.47577 1.090789,-2.24574 0.834133,-0.83414 2.117414,-1.15496 1.283281,-0.38498 3.336531,-0.38498 1.924922,0 3.208204,0.38498 1.347445,0.32082 2.117414,1.15496 0.769968,0.76997 1.026625,2.24574 0.32082,1.41161 0.32082,3.52902 z"
         style="stroke-width:6.15977"
         id="path334" />
    </g>
    <g
       aria-label="?"
       id="text74"
       style="font-size:170.324px;line-height:1.25;font-family:Calibri;-inkscape-font-specification:Calibri;letter-spacing:0px;word-spacing:0px;fill:#ffffff;stroke-width:7.98395"
       transform="translate(-4,2)">
      <path
         d="m 206.85779,79.387394 q 0,6.819613 -1.99599,12.308571 -1.91282,5.488957 -5.48896,9.480925 -3.49297,3.99197 -8.48293,6.40378 -4.9068,2.41182 -10.89475,3.07715 l -0.66533,16.21737 q -0.0832,1.49699 -2.41181,2.24548 -2.24548,0.7485 -6.57012,0.7485 -2.74448,0 -4.65729,-0.0832 -1.82966,-0.16633 -2.91081,-0.499 -1.08116,-0.33266 -1.58016,-0.91482 -0.49899,-0.58216 -0.58216,-1.49699 l -0.74849,-19.62718 q -0.0832,-2.66131 0.24949,-4.32463 0.33267,-1.66332 1.16433,-2.66132 0.91482,-0.997988 2.24548,-1.330652 1.33066,-0.41583 3.16031,-0.41583 h 1.16432 q 4.4078,0 7.56811,-1.413822 3.24348,-1.413822 5.32263,-3.742471 2.07915,-2.328648 2.99397,-5.488957 0.99799,-3.160309 0.99799,-6.736448 0,-3.991968 -1.16432,-7.318609 -1.08116,-3.326641 -3.40981,-5.738455 -2.24548,-2.411815 -5.73845,-3.659305 -3.40981,-1.330657 -8.06711,-1.330657 -4.24146,0 -7.48494,0.831661 -3.24347,0.83166 -5.57212,1.829652 -2.32865,0.997992 -3.9088,1.829652 -1.49699,0.831661 -2.32865,0.831661 -0.58216,0 -1.08116,-0.332664 -0.499,-0.415831 -0.83166,-1.413823 -0.33266,-0.997992 -0.58216,-2.827644 -0.16633,-1.829653 -0.16633,-4.657297 0,-2.910811 0.24949,-4.241467 0.2495,-1.330657 1.08116,-2.162317 0.83166,-0.83166 3.16031,-1.912818 2.32865,-1.164324 5.57212,-2.079151 3.24348,-0.997992 7.23545,-1.66332 3.99197,-0.665328 8.3166,-0.665328 9.81359,0 16.79954,2.744478 6.98594,2.661313 11.39374,7.235444 4.49096,4.574131 6.57012,10.478918 2.07915,5.904788 2.07915,12.474903 z m -24.61715,71.273276 q 0,3.40981 -0.58216,5.73846 -0.49899,2.32865 -1.91282,3.74247 -1.33065,1.41382 -3.6593,1.99598 -2.24548,0.66533 -5.57212,0.66533 -3.49298,0 -5.73846,-0.66533 -2.24548,-0.58216 -3.6593,-1.99598 -1.33066,-1.41382 -1.91282,-3.74247 -0.499,-2.32865 -0.499,-5.73846 0,-3.49297 0.499,-5.82162 0.58216,-2.41181 1.91282,-3.82564 1.41382,-1.49698 3.6593,-2.07915 2.24548,-0.66533 5.73846,-0.66533 3.32664,0 5.57212,0.66533 2.32865,0.58217 3.6593,2.07915 1.41383,1.41383 1.91282,3.82564 0.58216,2.32865 0.58216,5.82162 z"
         style="font-weight:bold;stroke-width:7.98395"
         id="path337" />
    </g>
    <g
       aria-label="??"
       id="text74-4"
       style="font-size:43.7827px;line-height:1.25;font-family:Calibri;-inkscape-font-specification:Calibri;letter-spacing:0px;word-spacing:0px;fill:#ffffff;stroke-width:2.05232">
      <path
         d="m 69.621779,101.35678 q 0,1.75301 -0.513078,3.16398 -0.491701,1.41097 -1.410966,2.43712 -0.897888,1.02616 -2.180584,1.64613 -1.261318,0.61997 -2.800553,0.791 l -0.171027,4.16876 q -0.02138,0.38481 -0.619969,0.57721 -0.577214,0.19241 -1.688884,0.19241 -0.705483,0 -1.197183,-0.0214 -0.470322,-0.0428 -0.74824,-0.12827 -0.277917,-0.0855 -0.406187,-0.23516 -0.128269,-0.14965 -0.149648,-0.38481 l -0.192404,-5.04527 q -0.02138,-0.68411 0.06414,-1.11167 0.08551,-0.42757 0.299296,-0.68411 0.235161,-0.25654 0.577213,-0.34205 0.342052,-0.10689 0.812374,-0.10689 h 0.299296 q 1.133048,0 1.945423,-0.36343 0.833752,-0.36343 1.368209,-0.96202 0.534457,-0.5986 0.769618,-1.41097 0.256539,-0.81237 0.256539,-1.73164 0,-1.02616 -0.299296,-1.88129 -0.277917,-0.85513 -0.876509,-1.4751 -0.577213,-0.619969 -1.475101,-0.940643 -0.876509,-0.342052 -2.073692,-0.342052 -1.090292,0 -1.924044,0.213783 -0.833753,0.213782 -1.432345,0.470321 -0.598591,0.256541 -1.004778,0.470321 -0.384809,0.21378 -0.598592,0.21378 -0.149648,0 -0.277917,-0.0855 -0.12827,-0.10689 -0.213783,-0.36343 -0.08551,-0.256539 -0.149648,-0.726861 -0.04276,-0.470322 -0.04276,-1.197183 0,-0.748239 0.06414,-1.090292 0.06414,-0.342052 0.277918,-0.555835 0.213783,-0.213783 0.812374,-0.4917 0.598592,-0.299296 1.432344,-0.534457 0.833753,-0.256539 1.85991,-0.427565 1.026157,-0.171026 2.137827,-0.171026 2.522636,0 4.318411,0.705482 1.795775,0.684105 2.928823,1.85991 1.154427,1.175805 1.688883,2.693667 0.534457,1.51785 0.534457,3.20674 z m -6.327968,18.32117 q 0,0.87651 -0.149648,1.47511 -0.12827,0.59859 -0.4917,0.96202 -0.342053,0.36343 -0.940644,0.51308 -0.577214,0.17102 -1.432344,0.17102 -0.897888,0 -1.475101,-0.17102 -0.577213,-0.14965 -0.940644,-0.51308 -0.342052,-0.36343 -0.4917,-0.96202 -0.12827,-0.5986 -0.12827,-1.47511 0,-0.89788 0.12827,-1.49647 0.149648,-0.61997 0.4917,-0.98341 0.363431,-0.3848 0.940644,-0.53445 0.577213,-0.17103 1.475101,-0.17103 0.85513,0 1.432344,0.17103 0.598591,0.14965 0.940644,0.53445 0.36343,0.36344 0.4917,0.98341 0.149648,0.59859 0.149648,1.49647 z"
         style="font-weight:bold;stroke-width:2.05232"
         id="path340" />
      <path
         d="m 89.909758,101.35678 q 0,1.75301 -0.513078,3.16398 -0.4917,1.41097 -1.410966,2.43712 -0.897887,1.02616 -2.180584,1.64613 -1.261318,0.61997 -2.800553,0.791 l -0.171026,4.16876 q -0.02138,0.38481 -0.61997,0.57721 -0.577214,0.19241 -1.688884,0.19241 -0.705483,0 -1.197183,-0.0214 -0.470322,-0.0428 -0.748239,-0.12827 -0.277918,-0.0855 -0.406188,-0.23516 -0.128269,-0.14965 -0.149648,-0.38481 l -0.192404,-5.04527 q -0.02138,-0.68411 0.06413,-1.11167 0.08551,-0.42757 0.299296,-0.68411 0.235161,-0.25654 0.577213,-0.34205 0.342052,-0.10689 0.812374,-0.10689 h 0.299296 q 1.133048,0 1.945423,-0.36343 0.833752,-0.36343 1.368209,-0.96202 0.534457,-0.5986 0.769618,-1.41097 0.256539,-0.81237 0.256539,-1.73164 0,-1.02616 -0.299296,-1.88129 -0.277917,-0.85513 -0.876509,-1.4751 -0.577213,-0.619969 -1.4751,-0.940643 -0.87651,-0.342052 -2.073693,-0.342052 -1.090292,0 -1.924044,0.213783 -0.833753,0.213782 -1.432344,0.470321 -0.598592,0.256541 -1.004779,0.470321 -0.384809,0.21378 -0.598592,0.21378 -0.149648,0 -0.277917,-0.0855 -0.12827,-0.10689 -0.213783,-0.36343 -0.08551,-0.256539 -0.149648,-0.726861 -0.04276,-0.470322 -0.04276,-1.197183 0,-0.748239 0.06413,-1.090292 0.06413,-0.342052 0.277918,-0.555835 0.213783,-0.213783 0.812374,-0.4917 0.598592,-0.299296 1.432344,-0.534457 0.833753,-0.256539 1.85991,-0.427565 1.026157,-0.171026 2.137827,-0.171026 2.522636,0 4.318411,0.705482 1.795775,0.684105 2.928823,1.85991 1.154427,1.175805 1.688884,2.693667 0.534456,1.51785 0.534456,3.20674 z m -6.327968,18.32117 q 0,0.87651 -0.149648,1.47511 -0.12827,0.59859 -0.4917,0.96202 -0.342052,0.36343 -0.940644,0.51308 -0.577213,0.17102 -1.432344,0.17102 -0.897888,0 -1.475101,-0.17102 -0.577213,-0.14965 -0.940644,-0.51308 -0.342052,-0.36343 -0.4917,-0.96202 -0.12827,-0.5986 -0.12827,-1.47511 0,-0.89788 0.12827,-1.49647 0.149648,-0.61997 0.4917,-0.98341 0.363431,-0.3848 0.940644,-0.53445 0.577213,-0.17103 1.475101,-0.17103 0.855131,0 1.432344,0.17103 0.598592,0.14965 0.940644,0.53445 0.36343,0.36344 0.4917,0.98341 0.149648,0.59859 0.149648,1.49647 z"
         style="font-weight:bold;stroke-width:2.05232"
         id="path342" />
    </g>
  </g>
  <g
     aria-label="0"
     id="text96"
     style="font-size:64.8318px;line-height:1.25;font-family:Calibri;-inkscape-font-specification:Calibri;letter-spacing:0px;word-spacing:0px;fill:#ffffff;stroke-width:3.039">
    <path
       d="m 60.277175,220.14306 q 0,4.9067 -0.791404,8.86372 -0.791404,3.95702 -2.595805,6.74276 -1.772744,2.78574 -4.653454,4.27358 -2.849054,1.48784 -6.99601,1.48784 -4.210268,0 -6.964354,-1.42453 -2.754085,-1.45618 -4.368549,-4.14695 -1.614464,-2.72243 -2.279243,-6.61614 -0.633123,-3.92536 -0.633123,-8.86372 0,-4.87505 0.791404,-8.83207 0.82306,-3.98868 2.595804,-6.77442 1.804401,-2.78574 4.653455,-4.27358 2.88071,-1.48784 6.99601,-1.48784 4.210268,0 6.964354,1.45619 2.785741,1.42452 4.400205,4.14695 1.614464,2.69078 2.247587,6.61614 0.633123,3.89371 0.633123,8.83207 z m -8.388881,0.41153 q 0,-2.91237 -0.158281,-5.1283 -0.15828,-2.24759 -0.506498,-3.89371 -0.316562,-1.64612 -0.82306,-2.78574 -0.474842,-1.13962 -1.171278,-1.8044 -0.696435,-0.69644 -1.582807,-0.98134 -0.886373,-0.28491 -1.962682,-0.28491 -1.867713,0 -3.102303,0.91803 -1.202934,0.88637 -1.931025,2.69077 -0.696436,1.80441 -0.981341,4.49518 -0.284905,2.69077 -0.284905,6.26792 0,4.36855 0.348217,7.24926 0.348218,2.84905 1.076309,4.55848 0.759748,1.67778 1.931026,2.37421 1.171278,0.66478 2.817397,0.66478 1.23459,0 2.184275,-0.37987 0.949685,-0.41153 1.64612,-1.20293 0.728092,-0.79141 1.202934,-1.99434 0.474842,-1.20294 0.759748,-2.78574 0.316561,-1.58281 0.41153,-3.57715 0.126624,-1.99434 0.126624,-4.4002 z"
       style="font-weight:bold;stroke-width:3.039"
       id="path331" />
  </g>
  <g
     aria-label="1"
     id="text96-3"
     style="font-size:64.8318px;line-height:1.25;font-family:Calibri;-inkscape-font-specification:Calibri;letter-spacing:0px;word-spacing:0px;fill:#ffffff;stroke-width:3.039">
    <path
       d="m 121.46034,237.8884 q 0,0.88637 -0.095,1.5195 -0.095,0.60146 -0.28491,0.98134 -0.15828,0.34821 -0.37987,0.5065 -0.2216,0.15828 -0.5065,0.15828 H 97.591604 q -0.253249,0 -0.474842,-0.15828 -0.221593,-0.15829 -0.41153,-0.5065 -0.158281,-0.37988 -0.25325,-0.98134 -0.09497,-0.63313 -0.09497,-1.5195 0,-0.91803 0.06331,-1.51949 0.09497,-0.63313 0.25325,-1.013 0.189936,-0.37988 0.41153,-0.53816 0.221593,-0.18993 0.506498,-0.18993 h 7.629136 v -26.65448 l -6.584483,3.64045 q -0.728091,0.34822 -1.202934,0.44319 -0.443186,0.0633 -0.728091,-0.18994 -0.25325,-0.2849 -0.348218,-0.94968 -0.09497,-0.66478 -0.09497,-1.86772 0,-0.75974 0.03166,-1.23459 0.03166,-0.50649 0.15828,-0.85471 0.126625,-0.34822 0.348218,-0.56981 0.221593,-0.2216 0.601467,-0.47484 l 8.800413,-5.69811 q 0.15828,-0.12663 0.37987,-0.18994 0.25325,-0.095 0.63312,-0.12662 0.37988,-0.0633 0.98135,-0.0633 0.63312,-0.0317 1.61446,-0.0317 1.20293,0 1.93102,0.0633 0.75975,0.0317 1.13963,0.15828 0.37987,0.095 0.50649,0.28491 0.12663,0.18993 0.12663,0.47484 v 33.84043 h 6.67945 q 0.2849,0 0.5065,0.18993 0.25325,0.15828 0.41153,0.53816 0.18993,0.37987 0.25325,1.013 0.095,0.60146 0.095,1.51949 z"
       style="font-weight:bold;stroke-width:3.039"
       id="path328" />
  </g>
  <g
     aria-label="2"
     id="text96-6"
     style="font-size:64.8318px;line-height:1.25;font-family:Calibri;-inkscape-font-specification:Calibri;letter-spacing:0px;word-spacing:0px;fill:#ffffff;stroke-width:3.039">
    <path
       d="m 184.58372,238.31364 q 0,0.91803 -0.095,1.58281 -0.0633,0.63312 -0.22159,1.04465 -0.15828,0.41153 -0.41153,0.60147 -0.25325,0.15828 -0.56981,0.15828 h -23.55218 q -0.69644,0 -1.20294,-0.12662 -0.5065,-0.12663 -0.82306,-0.47485 -0.31656,-0.37987 -0.47484,-1.0763 -0.12662,-0.69644 -0.12662,-1.80441 0,-1.04465 0.095,-1.77274 0.095,-0.75975 0.34822,-1.32956 0.25325,-0.60147 0.63313,-1.13962 0.41153,-0.56981 1.04465,-1.23459 l 7.09098,-7.59748 q 2.12096,-2.21593 3.41886,-4.02033 1.2979,-1.83606 2.026,-3.32389 0.72809,-1.5195 0.98134,-2.78575 0.2849,-1.26624 0.2849,-2.40586 0,-1.04466 -0.34822,-1.96269 -0.31656,-0.94968 -0.98134,-1.64612 -0.63312,-0.69643 -1.61446,-1.0763 -0.98134,-0.41153 -2.3109,-0.41153 -1.86771,0 -3.3239,0.47484 -1.42452,0.47484 -2.53249,1.07631 -1.07631,0.56981 -1.8044,1.07631 -0.72809,0.47484 -1.13962,0.47484 -0.28491,0 -0.5065,-0.18994 -0.18994,-0.18994 -0.31656,-0.63312 -0.12663,-0.44319 -0.22159,-1.17128 -0.0633,-0.75975 -0.0633,-1.83606 0,-0.72809 0.0317,-1.20293 0.0633,-0.5065 0.15828,-0.85472 0.095,-0.37987 0.25325,-0.63312 0.15828,-0.2849 0.53815,-0.66478 0.41153,-0.37987 1.45619,-0.94968 1.07631,-0.60147 2.62746,-1.13962 1.55115,-0.56982 3.41886,-0.94969 1.86772,-0.37987 3.89371,-0.37987 3.19727,0 5.57148,0.82306 2.40587,0.7914 3.98868,2.24758 1.58281,1.42453 2.34255,3.41887 0.79141,1.96268 0.79141,4.24192 0,1.99434 -0.37988,3.92537 -0.37987,1.93102 -1.5828,4.17861 -1.20294,2.21593 -3.38721,4.93836 -2.18428,2.69077 -5.79308,6.26792 l -4.78008,4.9067 h 16.14464 q 0.31656,0 0.56981,0.18994 0.28491,0.18993 0.47484,0.60146 0.18994,0.37988 0.28491,1.04466 0.095,0.63312 0.095,1.51949 z"
       style="font-weight:bold;stroke-width:3.039"
       id="path325" />
  </g>
  <g
     aria-label="3"
     id="text96-68"
     style="font-size:64.8318px;line-height:1.25;font-family:Calibri;-inkscape-font-specification:Calibri;letter-spacing:0px;word-spacing:0px;fill:#ffffff;stroke-width:3.039">
    <path
       d="m 247.13726,229.70317 q 0,3.07065 -1.17127,5.44486 -1.17128,2.37421 -3.26059,3.98867 -2.0893,1.61447 -5.00167,2.46918 -2.91236,0.82306 -6.36289,0.82306 -2.0893,0 -3.92536,-0.31656 -1.83606,-0.2849 -3.26058,-0.72809 -1.39287,-0.44319 -2.3109,-0.91803 -0.91803,-0.47484 -1.20294,-0.72809 -0.2849,-0.25325 -0.44318,-0.56981 -0.12663,-0.31656 -0.25325,-0.72809 -0.095,-0.44319 -0.15828,-1.07631 -0.0317,-0.66478 -0.0317,-1.58281 0,-1.51949 0.25325,-2.08931 0.25325,-0.60146 0.75975,-0.60146 0.31656,0 1.07631,0.44318 0.7914,0.41153 1.99434,0.91803 1.20293,0.47484 2.81739,0.91803 1.61447,0.41153 3.67212,0.41153 1.74109,0 3.07064,-0.41153 1.32956,-0.41153 2.24759,-1.13962 0.94969,-0.75975 1.39287,-1.8044 0.47484,-1.07631 0.47484,-2.37421 0,-1.42453 -0.56981,-2.56415 -0.53815,-1.13962 -1.64612,-1.93103 -1.07631,-0.82306 -2.75408,-1.26624 -1.64612,-0.44319 -3.89371,-0.44319 h -3.54549 q -0.41153,0 -0.69643,-0.095 -0.28491,-0.12662 -0.47485,-0.47484 -0.18993,-0.34822 -0.2849,-0.94968 -0.0633,-0.63313 -0.0633,-1.61447 0,-0.91803 0.0633,-1.48784 0.095,-0.60146 0.25325,-0.91803 0.18994,-0.31656 0.44318,-0.44318 0.28491,-0.12663 0.66478,-0.12663 h 3.57715 q 1.83606,0 3.26058,-0.41153 1.42453,-0.44318 2.37421,-1.23459 0.98135,-0.7914 1.48784,-1.89937 0.5065,-1.13962 0.5065,-2.50083 0,-1.04466 -0.34822,-1.96268 -0.34821,-0.94969 -1.04465,-1.61447 -0.66478,-0.69643 -1.74109,-1.07631 -1.07631,-0.41153 -2.53249,-0.41153 -1.64612,0 -3.1023,0.5065 -1.45619,0.47484 -2.62746,1.07631 -1.13962,0.56981 -1.96268,1.07631 -0.79141,0.5065 -1.17128,0.5065 -0.25325,0 -0.44319,-0.095 -0.18994,-0.12662 -0.31656,-0.44319 -0.12662,-0.31656 -0.18994,-0.91802 -0.0633,-0.60147 -0.0633,-1.55116 0,-0.7914 0.0317,-1.2979 0.0317,-0.53815 0.12662,-0.88637 0.095,-0.34822 0.22159,-0.60147 0.15829,-0.25325 0.47485,-0.53815 0.31656,-0.31656 1.2979,-0.91803 0.98134,-0.60147 2.46918,-1.17128 1.48784,-0.56981 3.41886,-0.94968 1.96269,-0.41153 4.24193,-0.41153 2.97568,0 5.25492,0.69643 2.3109,0.69644 3.86205,2.026 1.58281,1.2979 2.37421,3.22892 0.82306,1.89937 0.82306,4.30524 0,1.86771 -0.47484,3.48218 -0.47484,1.61446 -1.39287,2.88071 -0.91803,1.26624 -2.3109,2.15262 -1.36122,0.88637 -3.16562,1.32955 v 0.095 q 2.15262,0.25325 3.86205,1.10797 1.70944,0.82306 2.88071,2.0893 1.20294,1.26625 1.83606,2.88071 0.63312,1.58281 0.63312,3.41887 z"
       style="font-weight:bold;stroke-width:3.039"
       id="path322" />
  </g>
  <g
     aria-label="4"
     id="text96-64"
     style="font-size:64.8318px;line-height:1.25;font-family:Calibri;-inkscape-font-specification:Calibri;letter-spacing:0px;word-spacing:0px;fill:#ffffff;stroke-width:3.039">
    <path
       d="m 308.74959,229.92476 q 0,1.61447 -0.34822,2.46918 -0.31656,0.82306 -0.88637,0.82306 h -3.64046 v 7.40754 q 0,0.31656 -0.18993,0.56981 -0.18994,0.2216 -0.66478,0.37988 -0.47484,0.15828 -1.23459,0.22159 -0.75975,0.095 -1.96268,0.095 -1.13963,0 -1.93103,-0.095 -0.75975,-0.0633 -1.23459,-0.22159 -0.44319,-0.15828 -0.63312,-0.37988 -0.15828,-0.25325 -0.15828,-0.56981 V 233.217 h -15.6698 q -0.44319,0 -0.7914,-0.095 -0.34822,-0.12662 -0.60147,-0.50649 -0.22159,-0.41153 -0.34822,-1.13963 -0.095,-0.75974 -0.095,-1.99433 0,-1.013 0.0317,-1.74109 0.0633,-0.75975 0.15828,-1.36122 0.12663,-0.60146 0.31656,-1.13962 0.2216,-0.53815 0.53816,-1.13962 l 12.72577,-22.44421 q 0.15828,-0.28491 0.53816,-0.47485 0.37987,-0.22159 1.04465,-0.34821 0.69643,-0.15828 1.74109,-0.2216 1.04465,-0.0633 2.53249,-0.0633 1.61446,0 2.75408,0.095 1.13963,0.0633 1.80441,0.25325 0.69643,0.15828 1.01299,0.41153 0.31656,0.25325 0.31656,0.60147 v 24.66014 h 3.64046 q 0.5065,0 0.85472,0.7914 0.37987,0.75975 0.37987,2.56415 z M 295.86554,207.7338 h -0.0633 l -10.79474,18.83541 h 10.85806 z"
       style="font-weight:bold;stroke-width:3.039"
       id="path319" />
  </g>
  <g
     aria-label="5"
     id="text96-7"
     style="font-size:64.8318px;line-height:1.25;font-family:Calibri;-inkscape-font-specification:Calibri;letter-spacing:0px;word-spacing:0px;fill:#ffffff;stroke-width:3.039">
    <path
       d="m 58.673952,297.80503 q 0,3.3239 -1.171278,5.95136 -1.139622,2.5958 -3.260584,4.4002 -2.089306,1.77275 -5.064985,2.72243 -2.944022,0.94969 -6.552823,0.94969 -1.89937,0 -3.608802,-0.25325 -1.709432,-0.22159 -3.070647,-0.56981 -1.361214,-0.37988 -2.247587,-0.72809 -0.854716,-0.37988 -1.139621,-0.60147 -0.253249,-0.25325 -0.379874,-0.53816 -0.126625,-0.2849 -0.221593,-0.66477 -0.06331,-0.41153 -0.09497,-1.013 -0.03166,-0.60147 -0.03166,-1.42453 0,-0.88637 0.06331,-1.48784 0.06331,-0.63312 0.189937,-1.01299 0.15828,-0.37988 0.348217,-0.53816 0.189937,-0.15828 0.443186,-0.15828 0.316562,0 0.949685,0.37987 0.664779,0.34822 1.709432,0.79141 1.07631,0.44318 2.595805,0.82306 1.519495,0.34822 3.640458,0.34822 1.836056,0 3.323896,-0.37988 1.519495,-0.37987 2.564148,-1.20293 1.044653,-0.85472 1.614464,-2.12096 0.569811,-1.26625 0.569811,-3.03899 0,-1.5195 -0.474843,-2.69078 -0.474842,-1.20293 -1.487839,-2.02599 -1.012997,-0.82306 -2.627461,-1.23459 -1.614463,-0.41153 -3.925363,-0.41153 -1.836057,0 -3.355552,0.18994 -1.487839,0.18993 -2.817398,0.18993 -0.918028,0 -1.329558,-0.44318 -0.379874,-0.47485 -0.379874,-1.70944 v -17.79075 q 0,-1.26625 0.474842,-1.80441 0.506499,-0.56981 1.582808,-0.56981 h 19.405222 q 0.284906,0 0.538155,0.18994 0.253249,0.18994 0.41153,0.60147 0.189937,0.41153 0.253249,1.10796 0.09497,0.66478 0.09497,1.61447 0,1.89937 -0.348218,2.75408 -0.316562,0.85472 -0.949685,0.85472 h -14.56183 v 8.76875 q 1.107965,-0.12662 2.184274,-0.15828 1.107966,-0.0317 2.310899,-0.0317 3.323897,0 5.888045,0.7914 2.595805,0.75975 4.336893,2.27924 1.772745,1.48784 2.690773,3.73543 0.918029,2.21593 0.918029,5.15995 z"
       style="font-weight:bold;stroke-width:3.039"
       id="path316" />
  </g>
  <g
     aria-label="6"
     id="text96-3-2"
     style="font-size:64.8318px;line-height:1.25;font-family:Calibri;-inkscape-font-specification:Calibri;letter-spacing:0px;word-spacing:0px;fill:#ffffff;stroke-width:3.039">
    <path
       d="m 122.07305,297.69631 q 0,3.1023 -0.94969,5.76142 -0.94968,2.62746 -2.78574,4.55848 -1.83605,1.89937 -4.52683,3.00734 -2.69077,1.07631 -6.2046,1.07631 -2.84906,0 -4.97002,-0.66478 -2.12096,-0.63313 -3.672113,-1.83606 -1.551151,-1.23459 -2.532492,-2.97568 -0.981341,-1.74109 -1.582808,-3.92536 -0.569811,-2.18428 -0.791404,-4.74842 -0.221593,-2.56415 -0.221593,-5.44486 0,-2.40587 0.221593,-5.03333 0.25325,-2.62746 0.918029,-5.15995 0.696435,-2.5325 1.931025,-4.81174 1.23459,-2.3109 3.165613,-4.02033 1.96268,-1.74109 4.71677,-2.75409 2.78574,-1.01299 6.58448,-1.01299 1.20293,0 2.40587,0.15828 1.23459,0.12662 2.27924,0.34822 1.04465,0.22159 1.77274,0.50649 0.7281,0.28491 0.94969,0.5065 0.25325,0.18994 0.37987,0.44319 0.12663,0.25325 0.18994,0.56981 0.095,0.2849 0.12662,0.72809 0.0317,0.44319 0.0317,1.07631 0,0.98134 -0.0633,1.64612 -0.0317,0.63312 -0.15828,1.013 -0.12663,0.34821 -0.34822,0.5065 -0.22159,0.15828 -0.53815,0.15828 -0.37988,0 -0.98135,-0.18994 -0.60146,-0.22159 -1.45618,-0.47484 -0.85471,-0.25325 -2.02599,-0.44319 -1.13962,-0.18994 -2.65912,-0.18994 -2.56415,0 -4.33689,0.94969 -1.77275,0.94968 -2.88071,2.5958 -1.10797,1.61447 -1.61447,3.76709 -0.50649,2.15261 -0.53815,4.55848 0.69643,-0.44318 1.58281,-0.88637 0.91803,-0.44319 1.96268,-0.75975 1.07631,-0.31656 2.3109,-0.5065 1.23459,-0.22159 2.62746,-0.22159 3.1023,0 5.31823,0.85472 2.21593,0.85471 3.6088,2.43752 1.42453,1.58281 2.08931,3.83039 0.66478,2.24759 0.66478,5.00168 z m -8.16729,0.7914 q 0,-1.61446 -0.2849,-2.8174 -0.28491,-1.23459 -0.91803,-2.05765 -0.63313,-0.85471 -1.67778,-1.26624 -1.04465,-0.44319 -2.53249,-0.44319 -0.88637,0 -1.74109,0.15828 -0.85472,0.15828 -1.67778,0.44319 -0.82306,0.2849 -1.5828,0.69643 -0.75975,0.37988 -1.42453,0.82306 0,3.38721 0.37987,5.66645 0.37988,2.24759 1.10797,3.57715 0.75975,1.32956 1.86771,1.89937 1.13962,0.53815 2.62746,0.53815 1.45619,0 2.5325,-0.53815 1.10796,-0.53816 1.83605,-1.5195 0.72809,-0.98134 1.10797,-2.27924 0.37987,-1.32956 0.37987,-2.88071 z"
       style="font-weight:bold;stroke-width:3.039"
       id="path313" />
  </g>
  <g
     aria-label="7"
     id="text96-6-1"
     style="font-size:64.8318px;line-height:1.25;font-family:Calibri;-inkscape-font-specification:Calibri;letter-spacing:0px;word-spacing:0px;fill:#ffffff;stroke-width:3.039">
    <path
       d="m 184.15178,274.56936 q 0,0.91802 -0.0633,1.61446 -0.0633,0.66478 -0.18994,1.26625 -0.095,0.56981 -0.28491,1.10796 -0.18993,0.5065 -0.44318,1.10797 l -13.48552,31.24462 q -0.18994,0.41153 -0.5065,0.66478 -0.28491,0.25325 -0.82306,0.41153 -0.53816,0.12662 -1.39287,0.15828 -0.82306,0.0633 -2.05765,0.0633 -1.67778,0 -2.65912,-0.12662 -0.98134,-0.095 -1.45618,-0.31656 -0.44319,-0.25325 -0.47485,-0.60147 -0.0317,-0.37987 0.2216,-0.91803 l 14.49852,-31.97271 h -17.22095 q -0.66478,0 -1.013,-0.85472 -0.31656,-0.88637 -0.31656,-2.78574 0,-0.94969 0.095,-1.61447 0.095,-0.69643 0.25325,-1.13962 0.18993,-0.44318 0.41153,-0.63312 0.25325,-0.18994 0.56981,-0.18994 h 24.34358 q 0.56981,0 0.94968,0.12663 0.37988,0.095 0.60147,0.47484 0.22159,0.37987 0.31656,1.07631 0.12663,0.69643 0.12663,1.83606 z"
       style="font-weight:bold;stroke-width:3.039"
       id="path310" />
  </g>
  <g
     aria-label="8"
     id="text96-68-4"
     style="font-size:64.8318px;line-height:1.25;font-family:Calibri;-inkscape-font-specification:Calibri;letter-spacing:0px;word-spacing:0px;fill:#ffffff;stroke-width:3.039">
    <path
       d="m 245.61952,299.74023 q 0,2.78574 -0.98134,4.97002 -0.94969,2.18427 -2.84905,3.70377 -1.86772,1.48783 -4.65346,2.27924 -2.78574,0.75975 -6.4262,0.75975 -3.48218,0 -6.10964,-0.69644 -2.62746,-0.69643 -4.4002,-2.02599 -1.77275,-1.36122 -2.65912,-3.3239 -0.88637,-1.99434 -0.88637,-4.55849 0,-1.74108 0.5065,-3.26058 0.53815,-1.55115 1.55115,-2.84905 1.04465,-1.32956 2.56415,-2.46918 1.55115,-1.17128 3.54549,-2.21593 -1.61447,-0.88638 -2.91237,-1.89937 -1.2979,-1.04466 -2.21593,-2.24759 -0.91803,-1.23459 -1.39287,-2.69077 -0.47484,-1.45619 -0.47484,-3.16562 0,-2.46918 0.85471,-4.46352 0.88638,-2.02599 2.59581,-3.48217 1.74109,-1.48784 4.33689,-2.27925 2.59581,-0.7914 6.01467,-0.7914 3.38721,0 5.79308,0.72809 2.43752,0.72809 3.98867,2.05765 1.55115,1.32956 2.27924,3.19727 0.75975,1.83606 0.75975,4.08365 0,1.48784 -0.5065,2.91236 -0.47484,1.39287 -1.36121,2.65912 -0.88637,1.26625 -2.18428,2.40587 -1.2979,1.10796 -2.94402,2.02599 1.93103,1.013 3.45052,2.15262 1.5195,1.13962 2.56415,2.46918 1.04465,1.2979 1.58281,2.78574 0.56981,1.48784 0.56981,3.22893 z m -9.18028,-19.88007 q 0,-1.10796 -0.31657,-1.99433 -0.31656,-0.88638 -1.01299,-1.48784 -0.66478,-0.63313 -1.67778,-0.94969 -0.98134,-0.31656 -2.34255,-0.31656 -2.65912,0 -3.95702,1.23459 -1.29791,1.20294 -1.29791,3.35555 0,1.013 0.31657,1.86772 0.34821,0.85471 1.04465,1.61446 0.69643,0.75975 1.8044,1.48784 1.10796,0.72809 2.62746,1.55115 2.3109,-1.36121 3.54549,-2.91236 1.26625,-1.55116 1.26625,-3.45053 z m 0.94968,20.44988 q 0,-1.17128 -0.41153,-2.12096 -0.37987,-0.98134 -1.23459,-1.83606 -0.82306,-0.85472 -2.08931,-1.64612 -1.26624,-0.7914 -2.94402,-1.61446 -1.45618,0.7914 -2.56415,1.5828 -1.10796,0.79141 -1.83605,1.67778 -0.7281,0.85472 -1.10797,1.83606 -0.34822,0.94968 -0.34822,2.05765 0,2.46918 1.58281,3.76708 1.61446,1.2979 4.78008,1.2979 3.1023,0 4.6218,-1.32956 1.55115,-1.32955 1.55115,-3.67211 z"
       style="font-weight:bold;stroke-width:3.039"
       id="path307" />
  </g>
  <g
     aria-label="9"
     id="text96-64-6"
     style="font-size:64.8318px;line-height:1.25;font-family:Calibri;-inkscape-font-specification:Calibri;letter-spacing:0px;word-spacing:0px;fill:#ffffff;stroke-width:3.039"
     transform="translate(0.95057503,-1.0696776)">
    <path
       d="m 307.82486,289.02249 q 0,2.50084 -0.25324,5.19161 -0.25325,2.65912 -0.98135,5.22326 -0.69643,2.56415 -1.96268,4.87505 -1.23459,2.3109 -3.22892,4.05199 -1.96269,1.70943 -4.81174,2.72243 -2.8174,1.013 -6.67945,1.013 -1.36121,0 -2.72243,-0.18994 -1.32956,-0.18994 -2.43752,-0.47484 -1.10797,-0.28491 -1.89937,-0.60147 -0.75975,-0.31656 -1.10797,-0.63312 -0.34821,-0.34822 -0.50649,-0.98134 -0.15828,-0.63313 -0.15828,-1.77275 0,-1.04465 0.0317,-1.67777 0.0633,-0.63313 0.18994,-0.98135 0.15828,-0.34821 0.34822,-0.44318 0.22159,-0.12663 0.50649,-0.12663 0.37988,0 1.07631,0.2216 0.69644,0.22159 1.67778,0.5065 1.013,0.2849 2.27924,0.50649 1.26625,0.2216 2.8174,0.2216 2.65912,0 4.49517,-0.94969 1.83606,-0.94968 2.97568,-2.56415 1.13962,-1.61446 1.67778,-3.73542 0.53815,-2.12096 0.60147,-4.46352 -1.45619,0.91803 -3.51384,1.61446 -2.05765,0.66478 -4.71676,0.66478 -3.26059,0 -5.53983,-0.85471 -2.27924,-0.85472 -3.70377,-2.46918 -1.42453,-1.61447 -2.08931,-3.92537 -0.63312,-2.3109 -0.63312,-5.22326 0,-3.07065 0.91803,-5.6348 0.91803,-2.5958 2.72243,-4.46351 1.8044,-1.89937 4.49517,-2.94403 2.69077,-1.04465 6.23626,-1.04465 2.84906,0 4.97002,0.66478 2.15262,0.66478 3.67211,1.89937 1.55116,1.23459 2.56415,3.00733 1.04465,1.74109 1.61447,3.89371 0.60146,2.15262 0.82306,4.65345 0.25324,2.50084 0.25324,5.22327 z m -8.26225,-1.13962 q 0,-3.38721 -0.37987,-5.66645 -0.37988,-2.27925 -1.13963,-3.64046 -0.75974,-1.36122 -1.89937,-1.93103 -1.13962,-0.56981 -2.65911,-0.56981 -1.48784,0 -2.56415,0.53816 -1.07631,0.5065 -1.8044,1.45618 -0.69644,0.94969 -1.04465,2.24759 -0.34822,1.2979 -0.34822,2.84905 0,1.67778 0.2849,2.97568 0.31656,1.26625 0.94969,2.12096 0.66478,0.82306 1.70943,1.23459 1.04465,0.41153 2.53249,0.41153 1.83606,0 3.45052,-0.53815 1.64612,-0.56981 2.91237,-1.48784 z"
       style="font-weight:bold;stroke-width:3.039"
       id="path304" />
  </g>
</svg>
